<?xml version="1.0" encoding="UTF-8" standalone="no"?>
<!-- Created with Inkscape (http://www.inkscape.org/) -->

<svg
   xmlns:dc="http://purl.org/dc/elements/1.1/"
   xmlns:cc="http://creativecommons.org/ns#"
   xmlns:rdf="http://www.w3.org/1999/02/22-rdf-syntax-ns#"
   xmlns:svg="http://www.w3.org/2000/svg"
   xmlns="http://www.w3.org/2000/svg"
   xmlns:sodipodi="http://sodipodi.sourceforge.net/DTD/sodipodi-0.dtd"
   xmlns:inkscape="http://www.inkscape.org/namespaces/inkscape"
   width="283"
   height="60"
   viewBox="0 0 282.99999 60"
   id="svg4744"
   version="1.1"
   inkscape:version="0.91 r"
   sodipodi:docname="logo.svg">
  <defs
     id="defs4746" />
  <sodipodi:namedview
     id="base"
     pagecolor="#ffffff"
     bordercolor="#666666"
     borderopacity="1.0"
     inkscape:pageopacity="0.0"
     inkscape:pageshadow="2"
     inkscape:zoom="2.8"
     inkscape:cx="156.01969"
     inkscape:cy="35.126778"
     inkscape:document-units="px"
     inkscape:current-layer="layer1"
     showgrid="false"
     units="px"
     inkscape:window-width="1366"
     inkscape:window-height="716"
     inkscape:window-x="0"
     inkscape:window-y="0"
     inkscape:window-maximized="1" />
  <metadata
     id="metadata4749">
    <rdf:RDF>
      <cc:Work
         rdf:about="">
        <dc:format>image/svg+xml</dc:format>
        <dc:type
           rdf:resource="http://purl.org/dc/dcmitype/StillImage" />
        <dc:title></dc:title>
      </cc:Work>
    </rdf:RDF>
  </metadata>
  <g
     inkscape:label="Layer 1"
     inkscape:groupmode="layer"
     id="layer1"
     transform="translate(0,-992.36219)">
    <g
       id="g5402"
       transform="translate(-11.7955,984.06189)">
      <g
         id="g16204"
         transform="matrix(0.7905374,0,0,0.7905374,-23.660968,730.30002)">
        <path
           sodipodi:nodetypes="ccccc"
           inkscape:connector-curvature="0"
           id="path16206"
           d="m 87.670845,-912.14913 30.164585,18.23134 0,36.14786 -30.164585,-18.23134 z"
           style="opacity:1;fill:#841f47;fill-opacity:1;fill-rule:evenodd;stroke:none;stroke-opacity:1" />
        <path
           style="opacity:0.73600003;fill:#585a59;fill-opacity:1;fill-rule:evenodd;stroke:none;stroke-opacity:1"
           d="m 75.666362,-911.15124 -30.164585,16.82499 0,36.14785 30.164585,-16.825 z"
           id="path16208"
           inkscape:connector-curvature="0"
           sodipodi:nodetypes="ccccc" />
        <path
           sodipodi:nodetypes="ccccc"
           inkscape:connector-curvature="0"
           id="path16210"
           d="m 58.050985,-893.45899 29.834357,-18.7152 29.931068,18.28307 -29.834363,18.12922 z"
           style="opacity:0.56800022;fill:#e6087d;fill-opacity:1;fill-rule:evenodd;stroke:none;stroke-opacity:1" />
        <path
           sodipodi:nodetypes="ccccc"
           inkscape:connector-curvature="0"
           id="path16212"
           d="m 87.650179,-876.1454 -0.23439,37.5478 0.09613,0.0744 29.952411,-19.56068 z"
           style="opacity:0.89600004;fill:#e6087d;fill-opacity:1;fill-rule:evenodd;stroke:none;stroke-opacity:1" />
        <path
           style="opacity:0.76700003;fill:#fefefe;fill-opacity:1;fill-rule:evenodd;stroke:none;stroke-opacity:1"
           d="m 102.53387,-857.10475 -27.257891,-17.60889 -29.169183,16.33795 29.952936,19.56138 z"
           id="path16214"
           inkscape:connector-curvature="0"
           sodipodi:nodetypes="ccccc" />
        <path
           sodipodi:nodetypes="ccccc"
           inkscape:connector-curvature="0"
           id="path16216"
           d="m 45.482731,-894.13208 30.047385,17.89641 0.07698,37.04865 -30.164578,-18.95117 z"
           style="opacity:0.71600001;fill:#1a1a1a;fill-opacity:1;fill-rule:evenodd;stroke:none;stroke-opacity:1" />
      </g>
      <g
         id="text16220"
         style="font-style:normal;font-variant:normal;font-weight:normal;font-stretch:normal;font-size:15.95238304px;line-height:125%;font-family:'Godzilla MovieFont';-inkscape-font-specification:'Godzilla MovieFont, Normal';text-align:start;letter-spacing:0px;word-spacing:0px;writing-mode:lr-tb;text-anchor:start;fill:#666666;fill-opacity:1;stroke:none;stroke-width:1px;stroke-linecap:butt;stroke-linejoin:miter;stroke-opacity:1"
         transform="scale(1.0743686,0.93077925)">
        <path
           id="path5382"
           style="font-style:normal;font-variant:normal;font-weight:normal;font-stretch:normal;font-size:16.83862305px;line-height:125%;font-family:Micra;-inkscape-font-specification:'Micra, Normal';text-align:start;letter-spacing:0.45073953px;writing-mode:lr-tb;text-anchor:start;fill:#666666"
           d="m 93.775353,39.388523 0,-11.517618 1.71754,0 0,4.664299 1.717539,0 6.971188,-4.664299 2.94676,0 -8.082538,5.422037 8.604538,6.095581 -2.82889,0 -7.611058,-5.304166 -1.717539,0 0,5.304166 -1.71754,0 z"
           inkscape:connector-curvature="0" />
        <path
           id="path5384"
           style="font-style:normal;font-variant:normal;font-weight:normal;font-stretch:normal;font-size:16.83862305px;line-height:125%;font-family:Micra;-inkscape-font-specification:'Micra, Normal';text-align:start;letter-spacing:0.45073953px;writing-mode:lr-tb;text-anchor:start;fill:#666666"
           d="m 122.90279,36.020798 q 0,1.700701 -0.94296,2.542633 -0.92612,0.825092 -2.72786,0.825092 l -9.2444,0 0,-11.517618 8.84028,0 q 1.76805,0 2.71102,0.841931 0.94296,0.841931 0.94296,2.424762 0,1.734378 -1.29658,2.222698 0.7409,0.252579 1.17871,0.841931 0.53883,0.724061 0.53883,1.818571 z m -2.12166,-4.8832 q 0,-0.791415 -0.40413,-1.212381 -0.48832,-0.505159 -1.54915,-0.505159 l -7.12274,0 0,3.266693 7.12274,0 q 1.09451,0 1.51547,-0.37045 0.43781,-0.387288 0.43781,-1.178703 z m -9.07602,3.098306 0,3.603466 7.51003,0 q 0.97664,0 1.46496,-0.48832 0.50515,-0.505159 0.50515,-1.313413 0,-0.791415 -0.50515,-1.296574 -0.50516,-0.505159 -1.46496,-0.505159 l -7.51003,0 z"
           inkscape:connector-curvature="0" />
        <path
           id="path5386"
           style="font-style:normal;font-variant:normal;font-weight:normal;font-stretch:normal;font-size:16.83862305px;line-height:125%;font-family:Micra;-inkscape-font-specification:'Micra, Normal';text-align:start;letter-spacing:0.45073953px;writing-mode:lr-tb;text-anchor:start;fill:#666666"
           d="m 134.12815,27.870905 6.0619,11.517618 -1.93644,0 -1.36393,-2.559471 -8.21725,0 -1.34709,2.559471 -1.93644,0 6.06191,-11.517618 2.67734,0 z m 2.02063,7.425833 -3.13198,-6.045066 -0.43781,0 -3.13198,6.045066 6.70177,0 z"
           inkscape:connector-curvature="0" />
        <path
           id="path5388"
           style="font-style:normal;font-variant:normal;font-weight:normal;font-stretch:normal;font-size:16.83862305px;line-height:125%;font-family:Micra;-inkscape-font-specification:'Micra, Normal';text-align:start;letter-spacing:0.45073953px;writing-mode:lr-tb;text-anchor:start;fill:#666666"
           d="m 142.46305,39.388523 0,-11.517618 9.39595,0 q 1.53231,0 2.39108,0.909286 0.87561,0.909285 0.87561,2.761534 0,1.852248 -0.89245,2.761534 -0.8756,0.892447 -2.4416,0.892447 l -7.61105,0 0,4.192817 -1.71754,0 z m 1.71754,-5.74197 7.61105,0 q 0.7409,0 1.17871,-0.505159 0.4378,-0.505159 0.4378,-1.599669 0,-1.094511 -0.4378,-1.599669 -0.42097,-0.521998 -1.19555,-0.521998 l -7.59421,0 0,4.226495 z"
           inkscape:connector-curvature="0" />
        <path
           id="path5390"
           style="font-style:normal;font-variant:normal;font-weight:normal;font-stretch:normal;font-size:16.83862305px;line-height:125%;font-family:Micra;-inkscape-font-specification:'Micra, Normal';text-align:start;letter-spacing:0.45073953px;writing-mode:lr-tb;text-anchor:start;fill:#666666"
           d="m 157.63653,27.870905 12.03962,0 0,1.549153 -5.15262,0 0,9.968465 -1.71754,0 0,-9.968465 -5.16946,0 0,-1.549153 z"
           inkscape:connector-curvature="0" />
        <path
           id="path5392"
           style="font-style:normal;font-variant:normal;font-weight:normal;font-stretch:normal;font-size:16.83862305px;line-height:125%;font-family:Micra;-inkscape-font-specification:'Micra, Normal';text-align:start;letter-spacing:0.45073953px;writing-mode:lr-tb;text-anchor:start;fill:#666666"
           d="m 186.12226,27.870905 -2.50895,0 -9.88427,10.103174 0,-10.103174 -1.71754,0 0,11.517618 2.59315,0 9.80008,-10.002142 0,10.002142 1.71753,0 0,-11.517618 z"
           inkscape:connector-curvature="0" />
        <path
           id="path5394"
           style="font-style:normal;font-variant:normal;font-weight:normal;font-stretch:normal;font-size:16.83862305px;line-height:125%;font-family:Micra;-inkscape-font-specification:'Micra, Normal';text-align:start;letter-spacing:0.45073953px;writing-mode:lr-tb;text-anchor:start;fill:#666666"
           d="m 189.29928,39.388523 0,-11.517618 9.39595,0 q 1.53231,0 2.39108,0.909286 0.87561,0.909285 0.87561,2.761534 0,1.852248 -0.89245,2.761534 -0.8756,0.892447 -2.4416,0.892447 l -7.61105,0 0,4.192817 -1.71754,0 z m 1.71754,-5.74197 7.61105,0 q 0.7409,0 1.17871,-0.505159 0.4378,-0.505159 0.4378,-1.599669 0,-1.094511 -0.4378,-1.599669 -0.42097,-0.521998 -1.19554,-0.521998 l -7.59422,0 0,4.226495 z"
           inkscape:connector-curvature="0" />
        <path
           id="path5396"
           style="font-style:normal;font-variant:normal;font-weight:normal;font-stretch:normal;font-size:16.83862305px;line-height:125%;font-family:Micra;-inkscape-font-specification:'Micra, Normal';text-align:start;letter-spacing:0.45073953px;writing-mode:lr-tb;text-anchor:start;fill:#666666"
           d="m 205.0116,27.870905 1.71754,0 0,4.883201 9.91795,0 0,-4.883201 1.71754,0 0,11.517618 -1.71754,0 0,-5.085264 -9.91795,0 0,5.085264 -1.71754,0 0,-11.517618 z"
           inkscape:connector-curvature="0" />
        <path
           id="path5398"
           style="font-style:normal;font-variant:normal;font-weight:normal;font-stretch:normal;font-size:16.83862305px;line-height:125%;font-family:Micra;-inkscape-font-specification:'Micra, Normal';text-align:start;letter-spacing:0.45073953px;writing-mode:lr-tb;text-anchor:start;fill:#666666"
           d="m 238.45367,39.388523 -1.71753,0 0,-11.517618 1.71753,0 0,11.517618 z m -16.67023,-11.517618 1.7007,0 0,4.209656 7.61106,0 q 1.58283,0 2.42476,0.858769 0.90928,0.926125 0.90928,2.778373 0,1.869087 -0.8756,2.778373 -0.85877,0.892447 -2.45844,0.892447 l -9.31176,0 0,-11.517618 z m 1.7007,5.775648 0,4.192817 7.61106,0 q 0.75773,0 1.1787,-0.505159 0.4378,-0.521997 0.4378,-1.616508 0,-1.077672 -0.4378,-1.565992 -0.42097,-0.505158 -1.1787,-0.505158 l -7.61106,0 z"
           inkscape:connector-curvature="0" />
        <path
           id="path5400"
           style="font-style:normal;font-variant:normal;font-weight:normal;font-stretch:normal;font-size:16.83862305px;line-height:125%;font-family:Micra;-inkscape-font-specification:'Micra, Normal';text-align:start;letter-spacing:0.0027153px;writing-mode:lr-tb;text-anchor:start;fill:#666666"
           d="m 255.90695,27.854066 -2.50895,0 -9.88428,10.103174 0,-10.103174 -1.71753,0 0,11.534457 2.59314,0 9.80008,-10.018981 0,10.018981 1.71754,0 0,-11.534457 z m -9.73272,-1.700701 5.15262,0 0,1.549154 -5.15262,0 0,-1.549154 z"
           inkscape:connector-curvature="0" />
      </g>
      <g
         id="text16230"
         style="font-style:normal;font-variant:normal;font-weight:normal;font-stretch:normal;font-size:8.56462002px;line-height:125%;font-family:'Godzilla MovieFont';-inkscape-font-specification:'Godzilla MovieFont, Normal';text-align:start;letter-spacing:0.25886366px;word-spacing:0px;writing-mode:lr-tb;text-anchor:start;fill:#58730e;fill-opacity:1;stroke:none;stroke-width:1px;stroke-linecap:butt;stroke-linejoin:miter;stroke-opacity:1">
        <path
           id="path5363"
           style="font-style:normal;font-variant:normal;font-weight:normal;font-stretch:normal;font-size:8.56466389px;line-height:125%;font-family:Micra;-inkscape-font-specification:'Micra, Normal';text-align:start;writing-mode:lr-tb;text-anchor:start;fill:#58730e;fill-opacity:1"
           d="m 202.50473,51.360996 0,-5.85823 0.87359,0 0,2.372412 0.8736,0 3.54577,-2.372412 1.49882,0 -4.11104,2.757822 4.37654,3.100408 -1.43886,0 -3.87123,-2.697869 -0.8736,0 0,2.697869 -0.87359,0 z"
           inkscape:connector-curvature="0" />
        <path
           id="path5365"
           style="font-style:normal;font-variant:normal;font-weight:normal;font-stretch:normal;font-size:8.56466389px;line-height:125%;font-family:Micra;-inkscape-font-specification:'Micra, Normal';text-align:start;writing-mode:lr-tb;text-anchor:start;fill:#58730e;fill-opacity:1"
           d="m 210.81464,51.360996 0,-5.85823 4.77909,0 q 0.77938,0 1.21618,0.462492 0.44536,0.462492 0.44536,1.404605 0,0.942113 -0.45393,1.404605 -0.44536,0.453927 -1.24187,0.453927 l -3.87123,0 0,2.132601 -0.8736,0 z m 0.8736,-2.92055 3.87123,0 q 0.37684,0 0.59952,-0.25694 0.22269,-0.25694 0.22269,-0.813643 0,-0.556703 -0.22269,-0.813643 -0.21411,-0.265505 -0.60809,-0.265505 l -3.86266,0 0,2.149731 z"
           inkscape:connector-curvature="0" />
        <path
           id="path5367"
           style="font-style:normal;font-variant:normal;font-weight:normal;font-stretch:normal;font-size:8.56466389px;line-height:125%;font-family:Micra;-inkscape-font-specification:'Micra, Normal';text-align:start;writing-mode:lr-tb;text-anchor:start;fill:#58730e;fill-opacity:1"
           d="m 222.92138,45.502766 3.08328,5.85823 -0.98494,0 -0.69373,-1.301829 -4.17956,0 -0.68517,1.301829 -0.98494,0 3.08328,-5.85823 1.36178,0 z m 1.02776,3.777017 -1.59303,-3.074714 -0.22268,0 -1.59302,3.074714 3.40873,0 z"
           inkscape:connector-curvature="0" />
        <path
           id="path5369"
           style="font-style:normal;font-variant:normal;font-weight:normal;font-stretch:normal;font-size:8.56466389px;line-height:125%;font-family:Micra;-inkscape-font-specification:'Micra, Normal';text-align:start;writing-mode:lr-tb;text-anchor:start;fill:#58730e;fill-opacity:1"
           d="m 227.99546,48.440446 q 0,1.601592 0.34259,1.90992 0.34258,0.308328 2.1069,0.308328 1.63585,0 1.99557,-0.179858 0.41967,-0.214117 0.41967,-1.15623 l 0.8736,0 q 0,1.39604 -0.5824,1.764321 -0.5824,0.359716 -2.70644,0.359716 -2.16686,0 -2.74069,-0.51388 -0.57383,-0.51388 -0.57383,-2.492317 0,-1.995567 0.56527,-2.509447 0.56526,-0.513879 2.74925,-0.513879 2.14117,0 2.715,0.359715 0.57384,0.359716 0.57384,1.764321 l -0.8736,0 q 0,-0.942113 -0.38541,-1.130535 -0.38541,-0.196988 -2.02983,-0.196988 -1.77288,0 -2.11547,0.308328 -0.33402,0.299763 -0.33402,1.918485 z"
           inkscape:connector-curvature="0" />
        <path
           id="path5371"
           style="font-style:normal;font-variant:normal;font-weight:normal;font-stretch:normal;font-size:8.56466389px;line-height:125%;font-family:Micra;-inkscape-font-specification:'Micra, Normal';text-align:start;writing-mode:lr-tb;text-anchor:start;fill:#58730e;fill-opacity:1"
           d="m 235.19505,45.502766 0.87359,0 0,2.483753 5.04459,0 0,-2.483753 0.87359,0 0,5.85823 -0.87359,0 0,-2.586528 -5.04459,0 0,2.586528 -0.87359,0 0,-5.85823 z"
           inkscape:connector-curvature="0" />
        <path
           id="path5373"
           style="font-style:normal;font-variant:normal;font-weight:normal;font-stretch:normal;font-size:8.56466389px;line-height:125%;font-family:Micra;-inkscape-font-specification:'Micra, Normal';text-align:start;writing-mode:lr-tb;text-anchor:start;fill:#58730e;fill-opacity:1"
           d="m 247.15552,51.446643 q -1.82428,0 -2.55227,-0.231246 -0.728,-0.239811 -0.92499,-0.89929 -0.13703,-0.453927 -0.13703,-1.875661 0,-1.447428 0.12847,-1.875662 0.19699,-0.668043 0.93355,-0.907854 0.73656,-0.23981 2.55227,-0.23981 1.82427,0 2.5437,0.23981 0.728,0.231246 0.93355,0.89929 0.13703,0.453927 0.13703,1.884226 0,1.438863 -0.12847,1.867097 -0.19698,0.668043 -0.92498,0.907854 -0.728,0.231246 -2.56083,0.231246 z m 0,-0.787949 q 2.02126,0 2.38097,-0.299763 0.35972,-0.299764 0.35972,-1.918485 0,-1.627286 -0.35972,-1.92705 -0.35115,-0.299763 -2.38097,-0.299763 -2.02983,0 -2.38955,0.299763 -0.35115,0.299764 -0.35115,1.92705 0,1.610157 0.35972,1.918485 0.35972,0.299763 2.38098,0.299763 z"
           inkscape:connector-curvature="0" />
        <path
           id="path5375"
           style="font-style:normal;font-variant:normal;font-weight:normal;font-stretch:normal;font-size:8.56466389px;line-height:125%;font-family:Micra;-inkscape-font-specification:'Micra, Normal';text-align:start;writing-mode:lr-tb;text-anchor:start;fill:#58730e;fill-opacity:1"
           d="m 253.14535,47.464074 0,-1.952743 5.90105,0 0,5.061716 0.41967,0 0,2.201119 -0.80508,0 0,-1.41317 -5.55847,0 0,1.41317 -0.80508,0 0,-2.201119 0.42824,0 q 0.16273,-0.565268 0.2912,-1.550204 0.12847,-0.993501 0.12847,-1.558769 z m 5.02745,-1.164794 -4.15386,0 0,1.164794 q 0,0.668044 -0.10277,1.584463 -0.10278,0.916419 -0.26551,1.52451 l 4.52214,0 0,-4.273767 z"
           inkscape:connector-curvature="0" />
        <path
           id="path5377"
           style="font-style:normal;font-variant:normal;font-weight:normal;font-stretch:normal;font-size:8.56466389px;line-height:125%;font-family:Micra;-inkscape-font-specification:'Micra, Normal';text-align:start;writing-mode:lr-tb;text-anchor:start;fill:#58730e;fill-opacity:1"
           d="m 264.98149,45.502766 3.08328,5.85823 -0.98493,0 -0.69374,-1.301829 -4.17956,0 -0.68517,1.301829 -0.98494,0 3.08328,-5.85823 1.36178,0 z m 1.02776,3.777017 -1.59302,-3.074714 -0.22269,0 -1.59302,3.074714 3.40873,0 z"
           inkscape:connector-curvature="0" />
        <path
           id="path5379"
           style="font-style:normal;font-variant:normal;font-weight:normal;font-stretch:normal;font-size:8.56466389px;line-height:125%;font-family:Micra;-inkscape-font-specification:'Micra, Normal';text-align:start;writing-mode:lr-tb;text-anchor:start;fill:#58730e;fill-opacity:1"
           d="m 269.25049,51.360996 0,-5.85823 4.77909,0 q 0.77938,0 1.21618,0.462492 0.44536,0.462492 0.44536,1.404605 0,0.942113 -0.45393,1.404605 -0.44536,0.453927 -1.24187,0.453927 l -3.87123,0 0,2.132601 -0.8736,0 z m 0.8736,-2.92055 3.87123,0 q 0.37684,0 0.59952,-0.25694 0.22269,-0.25694 0.22269,-0.813643 0,-0.556703 -0.22269,-0.813643 -0.21411,-0.265505 -0.60809,-0.265505 l -3.86266,0 0,2.149731 z"
           inkscape:connector-curvature="0" />
      </g>
      <g
         id="text16234"
         style="font-style:normal;font-variant:normal;font-weight:normal;font-stretch:normal;font-size:15.04038525px;line-height:120.00000477%;font-family:'Godzilla MovieFont';-inkscape-font-specification:'Godzilla MovieFont, Normal';text-align:start;letter-spacing:0.52915001px;word-spacing:0px;writing-mode:lr-tb;text-anchor:start;fill:#666666;fill-opacity:1;stroke:none;stroke-width:1px;stroke-linecap:butt;stroke-linejoin:miter;stroke-opacity:1"
         transform="scale(1.0724021,0.93248606)">
        <path
           id="path5350"
           style="font-style:normal;font-variant:normal;font-weight:normal;font-stretch:normal;font-size:15.16339397px;line-height:120.00000477%;font-family:Micra;-inkscape-font-specification:'Micra, Normal';text-align:start;letter-spacing:0.52915001px;writing-mode:lr-tb;text-anchor:start;fill:#666666"
           d="m 105.57764,53.410902 q 0,1.531503 -0.84915,2.289672 -0.83399,0.743007 -2.45647,0.743007 l -8.324702,0 0,-10.371762 7.960782,0 q 1.59216,0 2.44131,0.75817 0.84915,0.75817 0.84915,2.183529 0,1.561829 -1.16759,2.001568 0.66719,0.22745 1.06144,0.758169 0.48523,0.652026 0.48523,1.637647 z m -1.91059,-4.397384 q 0,-0.71268 -0.36392,-1.091765 -0.43974,-0.454902 -1.39503,-0.454902 l -6.414116,0 0,2.941699 6.414116,0 q 0.98562,0 1.3647,-0.333595 0.39425,-0.348758 0.39425,-1.061437 z m -8.173066,2.790064 0,3.244966 6.762876,0 q 0.87947,0 1.31921,-0.439738 0.4549,-0.454902 0.4549,-1.182745 0,-0.712679 -0.4549,-1.167581 -0.4549,-0.454902 -1.31921,-0.454902 l -6.762876,0 z"
           inkscape:connector-curvature="0" />
        <path
           id="path5352"
           style="font-style:normal;font-variant:normal;font-weight:normal;font-stretch:normal;font-size:15.16339397px;line-height:120.00000477%;font-family:Micra;-inkscape-font-specification:'Micra, Normal';text-align:start;letter-spacing:0.52915001px;writing-mode:lr-tb;text-anchor:start;fill:#666666"
           d="m 114.92999,56.595215 q -3.2298,0 -4.51869,-0.409412 -1.28889,-0.424575 -1.63765,-1.592156 -0.24261,-0.80366 -0.24261,-3.320784 0,-2.562613 0.22745,-3.320783 0.34876,-1.182745 1.65281,-1.60732 1.30405,-0.424575 4.51869,-0.424575 3.2298,0 4.50353,0.424575 1.28889,0.409412 1.65281,1.592157 0.24261,0.803659 0.24261,3.335946 0,2.54745 -0.22745,3.30562 -0.34876,1.182745 -1.63764,1.60732 -1.28889,0.409412 -4.53386,0.409412 z m 0,-1.395033 q 3.57856,0 4.21542,-0.530718 0.63687,-0.530719 0.63687,-3.396601 0,-2.881045 -0.63687,-3.411763 -0.62169,-0.530719 -4.21542,-0.530719 -3.59372,0 -4.23059,0.530719 -0.6217,0.530718 -0.6217,3.411763 0,2.850718 0.63687,3.396601 0.63686,0.530718 4.21542,0.530718 z"
           inkscape:connector-curvature="0" />
        <path
           id="path5354"
           style="font-style:normal;font-variant:normal;font-weight:normal;font-stretch:normal;font-size:15.16339397px;line-height:120.00000477%;font-family:Micra;-inkscape-font-specification:'Micra, Normal';text-align:start;letter-spacing:0.52915001px;writing-mode:lr-tb;text-anchor:start;fill:#666666"
           d="m 124.21055,46.071819 12.00941,0 0,10.371762 -1.54667,0 0,-8.97673 -8.91607,0 0,8.97673 -1.54667,0 0,-10.371762 z"
           inkscape:connector-curvature="0" />
        <path
           id="path5356"
           style="font-style:normal;font-variant:normal;font-weight:normal;font-stretch:normal;font-size:15.16339397px;line-height:120.00000477%;font-family:Micra;-inkscape-font-specification:'Micra, Normal';text-align:start;letter-spacing:0.52915001px;writing-mode:lr-tb;text-anchor:start;fill:#666666"
           d="m 139.21979,56.443581 0,-10.371762 8.46118,0 q 1.37987,0 2.1532,0.818823 0.7885,0.818824 0.7885,2.486797 0,1.667973 -0.80366,2.486797 -0.7885,0.80366 -2.1987,0.80366 l -6.85385,0 0,3.775685 -1.54667,0 z m 1.54667,-5.170718 6.85385,0 q 0.66719,0 1.06144,-0.454902 0.39425,-0.454901 0.39425,-1.440522 0,-0.985621 -0.39425,-1.440522 -0.37908,-0.470066 -1.0766,-0.470066 l -6.83869,0 0,3.806012 z"
           inkscape:connector-curvature="0" />
        <path
           id="path5358"
           style="font-style:normal;font-variant:normal;font-weight:normal;font-stretch:normal;font-size:15.16339397px;line-height:120.00000477%;font-family:Micra;-inkscape-font-specification:'Micra, Normal';text-align:start;letter-spacing:0.52915001px;writing-mode:lr-tb;text-anchor:start;fill:#666666"
           d="m 159.84566,56.595215 q -3.22981,0 -4.5187,-0.409412 -1.28888,-0.424575 -1.63764,-1.592156 -0.24262,-0.80366 -0.24262,-3.320784 0,-2.562613 0.22745,-3.320783 0.34876,-1.182745 1.65281,-1.60732 1.30406,-0.424575 4.5187,-0.424575 3.2298,0 4.50352,0.424575 1.28889,0.409412 1.65281,1.592157 0.24262,0.803659 0.24262,3.335946 0,2.54745 -0.22745,3.30562 -0.34876,1.182745 -1.63765,1.60732 -1.28889,0.409412 -4.53385,0.409412 z m 0,-1.395033 q 3.57856,0 4.21542,-0.530718 0.63686,-0.530719 0.63686,-3.396601 0,-2.881045 -0.63686,-3.411763 -0.6217,-0.530719 -4.21542,-0.530719 -3.59373,0 -4.23059,0.530719 -0.6217,0.530718 -0.6217,3.411763 0,2.850718 0.63686,3.396601 0.63686,0.530718 4.21543,0.530718 z"
           inkscape:connector-curvature="0" />
        <path
           id="path5360"
           style="font-style:normal;font-variant:normal;font-weight:normal;font-stretch:normal;font-size:15.16339397px;line-height:120.00000477%;font-family:Micra;-inkscape-font-specification:'Micra, Normal';text-align:start;letter-spacing:0.52915001px;writing-mode:lr-tb;text-anchor:start;fill:#666666"
           d="m 170.46059,51.272863 q 0,2.835555 0.60654,3.381437 0.60653,0.545882 3.73019,0.545882 2.89621,0 3.53307,-0.318431 0.74301,-0.379085 0.74301,-2.047058 l 1.54666,0 q 0,2.471633 -1.03111,3.123659 -1.03111,0.636863 -4.79163,0.636863 -3.83634,0 -4.85229,-0.909804 -1.01594,-0.909804 -1.01594,-4.412548 0,-3.533071 1.00078,-4.442874 1.00079,-0.909804 4.86745,-0.909804 3.79085,0 4.8068,0.636863 1.01594,0.636862 1.01594,3.123659 l -1.54666,0 q 0,-1.667973 -0.68235,-2.001568 -0.68236,-0.348758 -3.59373,-0.348758 -3.13882,0 -3.74536,0.545882 -0.59137,0.530719 -0.59137,3.3966 z"
           inkscape:connector-curvature="0" />
      </g>
      <path
         sodipodi:nodetypes="ccccc"
         inkscape:connector-curvature="0"
         id="rect16238"
         d="m 82.434866,14.6033 211.570684,0 0,47.9107 -211.570684,0 z"
         style="opacity:0.594;fill:none;fill-opacity:1;fill-rule:evenodd;stroke:#5c5c5c;stroke-width:1;stroke-miterlimit:4;stroke-dasharray:none;stroke-opacity:0.94117647" />
    </g>
  </g>
</svg>
