<?xml version="1.0" encoding="UTF-8" standalone="no"?>
<!-- Created with Inkscape (http://www.inkscape.org/) -->

<svg
   xmlns:dc="http://purl.org/dc/elements/1.1/"
   xmlns:cc="http://creativecommons.org/ns#"
   xmlns:rdf="http://www.w3.org/1999/02/22-rdf-syntax-ns#"
   xmlns:svg="http://www.w3.org/2000/svg"
   xmlns="http://www.w3.org/2000/svg"
   xmlns:sodipodi="http://sodipodi.sourceforge.net/DTD/sodipodi-0.dtd"
   xmlns:inkscape="http://www.inkscape.org/namespaces/inkscape"
   width="136"
   height="155"
   viewBox="0 0 136 155"
   id="svg5309"
   version="1.1"
   inkscape:version="0.91 r13725"
   sodipodi:docname="man.svg">
  <defs
     id="defs5311" />
  <sodipodi:namedview
     id="base"
     pagecolor="#ffffff"
     bordercolor="#666666"
     borderopacity="1.0"
     inkscape:pageopacity="0.0"
     inkscape:pageshadow="2"
     inkscape:zoom="0.35"
     inkscape:cx="-86.428571"
     inkscape:cy="520"
     inkscape:document-units="px"
     inkscape:current-layer="layer1"
     showgrid="false"
     units="px"
     inkscape:window-width="1280"
     inkscape:window-height="971"
     inkscape:window-x="-8"
     inkscape:window-y="-8"
     inkscape:window-maximized="1" />
  <metadata
     id="metadata5314">
    <rdf:RDF>
      <cc:Work
         rdf:about="">
        <dc:format>image/svg+xml</dc:format>
        <dc:type
           rdf:resource="http://purl.org/dc/dcmitype/StillImage" />
        <dc:title></dc:title>
      </cc:Work>
    </rdf:RDF>
  </metadata>
  <g
     inkscape:label="Layer 1"
     inkscape:groupmode="layer"
     id="layer1"
     transform="translate(0,-897.36216)">
    <g
       id="g5647"
       transform="matrix(0.26446012,0,0,0.26446012,-17.879488,771.00603)"
       style="opacity:0.09299999;fill:#ffffff">
      <path
         sodipodi:nodetypes="cccscscsccccccsscccc"
         inkscape:connector-curvature="0"
         id="path5644"
         d="m 67.683984,517.81192 20.279456,-12.69013 35.30302,-13.61603 c 0,0 8.84269,-4.18508 13.09527,1.53342 4.25248,5.71827 13.5483,38.42732 13.5483,38.42732 0,0 -8.97748,10.43392 -2.40093,24.32954 6.57653,13.89562 15.34192,42.21709 35.28362,45.14856 19.94184,2.93171 48.65873,4.80232 56.23825,1.21507 7.57951,-3.58724 255.2416,-123.89337 255.2416,-123.89337 l 13.34964,25.9377 -253.31275,121.43465 -29.83915,23.7282 c 0,0 -18.0216,20.72221 -14.56948,34.55043 8.06185,76.19587 135.31221,85.61959 112.76415,98.22013 -6.31634,2.98941 -89.94069,-3.81863 -127.62569,-24.638 -37.68502,-20.81938 -67.98321,-65.23521 -76.35338,-82.92059 -8.37016,-17.68538 -13.01819,-34.03985 -13.01819,-34.03985 0,0 12.37202,-22.86362 5.8631,-39.88376 -6.50904,-17.01981 -8.63049,-34.57008 -19.797243,-38.56234 -11.166532,-3.99239 -24.049593,-44.28095 -24.049593,-44.28095 z"
         style="fill:#ffffff;fill-rule:evenodd;stroke:none;stroke-width:1px;stroke-linecap:butt;stroke-linejoin:miter;stroke-opacity:1" />
      <path
         sodipodi:nodetypes="ccsssssscsccccccsssssssccsssssssssssssc"
         inkscape:connector-curvature="0"
         id="path5595"
         d="m 430.81121,497.59499 c -0.33688,0.0184 -0.67818,0.0618 -1.02344,0.1308 -11.04855,2.2097 -18.78198,5.5245 -16.57227,14.3633 2.20971,8.8388 12.15246,17.6763 8.83789,22.0957 -3.31456,4.4194 -15.46752,9.9451 -13.25781,16.5742 2.20971,6.6291 14.36418,0 26.51758,0 12.15339,0 49.71852,36.4588 56.34765,43.0879 6.62912,6.6292 9.21814,19.8876 8.11329,32.041 -1.10486,12.1534 -2.21072,32.041 -8.83985,35.3555 -6.62913,3.3146 -40.15284,-8.8391 -44.57226,-11.0488 -0.4344,-0.2172 -1.26647,-0.4959 -2.27735,-0.7989 -1.02883,-33.39863 -28.39022,-59.94637 -61.80469,-59.9668 -34.17105,-6.6e-4 -61.87263,27.70005 -61.87304,61.8711 4.1e-4,34.17105 27.70199,61.87176 61.87304,61.8711 11.37306,-0.0189 22.52088,-3.1721 32.21876,-9.1133 1.16465,3.3617 2.03124,5.7989 2.03124,5.7989 0,0 4.42022,12.154 15.46876,18.7832 11.04854,6.6291 17.67689,6.63 23.20117,12.1543 5.52427,5.5242 16.57288,70.7094 17.67773,75.1289 1.10486,4.4194 -5.52344,17.6774 -5.52344,27.6211 0,9.9437 -4.42053,45.2992 -5.52539,49.7187 -1.10485,4.4194 -39.77422,20.9917 -55.24218,37.5645 -15.46796,16.5728 -30.93555,29.8312 -30.93555,35.3554 0,5.5243 37.56445,27.6231 37.56445,27.6231 l -3.31445,8.83791 c 0,0 47.50798,30.9367 61.87109,36.4609 14.36311,5.5243 54.13783,24.3067 59.66211,24.3067 5.52427,0 7.73388,-11.0485 3.31446,-20.9922 -4.41942,-9.9437 -15.46697,-20.9919 -29.83008,-27.6211 -14.36311,-6.6291 -26.51686,-11.0494 -28.72657,-15.46881 -2.20971,-4.4194 -3.3149,-6.6298 9.94336,-15.4687 13.25825,-8.8388 40.88065,-18.7811 47.50977,-25.4102 6.62913,-6.6292 29.82985,-64.0825 36.45898,-86.1797 6.62912,-22.0971 15.46959,-74.0247 9.94532,-93.9121 -5.52428,-19.8874 -57.45375,-87.283 -58.5586,-93.9121 -1.10486,-6.6291 14.36389,-68.501 15.46875,-77.3398 1.10485,-8.8389 -1.10514,-18.7829 -11.04883,-25.4121 -9.94369,-6.6291 -58.55826,-37.5654 -68.50195,-49.7188 -9.63295,-11.7736 -16.15465,-34.9526 -26.59765,-34.3808 z"
         style="opacity:1;fill:#ffffff;fill-opacity:1;fill-rule:evenodd;stroke:none;stroke-opacity:1" />
      <path
         inkscape:connector-curvature="0"
         id="path5627"
         d="m 446.03755,651.20528 c 0,0 18.2301,-34.8029 21.54466,-41.4321 3.31456,-6.6291 7.18155,-10.4961 6.0767,-14.3631 -1.10485,-3.867 -37.01262,-44.1941 -37.01262,-44.1941 l 22.09709,-18.7826 c 0,0 48.61359,32.0408 50.27087,40.3272 1.65728,8.2864 4.41942,12.1534 1.10485,20.9922 -3.31456,8.8389 -18.78252,43.6418 -20.4398,48.0612 -1.65728,4.4194 -9.39126,28.7262 -9.39126,28.7262 z"
         style="fill:#ffffff;fill-rule:evenodd;stroke:none;stroke-width:1px;stroke-linecap:butt;stroke-linejoin:miter;stroke-opacity:1" />
    </g>
  </g>
</svg>
