<?xml version="1.0" encoding="UTF-8" standalone="no"?>
<!-- Created with Inkscape (http://www.inkscape.org/) -->

<svg
   xmlns:dc="http://purl.org/dc/elements/1.1/"
   xmlns:cc="http://creativecommons.org/ns#"
   xmlns:rdf="http://www.w3.org/1999/02/22-rdf-syntax-ns#"
   xmlns:svg="http://www.w3.org/2000/svg"
   xmlns="http://www.w3.org/2000/svg"
   xmlns:sodipodi="http://sodipodi.sourceforge.net/DTD/sodipodi-0.dtd"
   xmlns:inkscape="http://www.inkscape.org/namespaces/inkscape"
   width="13"
   height="13"
   viewBox="0 0 13 13"
   id="svg4724"
   version="1.1"
   inkscape:version="0.91 r13725"
   sodipodi:docname="mark-white.svg">
  <defs
     id="defs4726" />
  <sodipodi:namedview
     id="base"
     pagecolor="#ffffff"
     bordercolor="#666666"
     borderopacity="1.0"
     inkscape:pageopacity="0.0"
     inkscape:pageshadow="2"
     inkscape:zoom="1.4"
     inkscape:cx="-8.3189678"
     inkscape:cy="6.5964428"
     inkscape:document-units="px"
     inkscape:current-layer="layer1"
     showgrid="false"
     units="px"
     inkscape:window-width="1280"
     inkscape:window-height="971"
     inkscape:window-x="-8"
     inkscape:window-y="-8"
     inkscape:window-maximized="1" />
  <metadata
     id="metadata4729">
    <rdf:RDF>
      <cc:Work
         rdf:about="">
        <dc:format>image/svg+xml</dc:format>
        <dc:type
           rdf:resource="http://purl.org/dc/dcmitype/StillImage" />
        <dc:title></dc:title>
      </cc:Work>
    </rdf:RDF>
  </metadata>
  <g
     inkscape:label="Layer 1"
     inkscape:groupmode="layer"
     id="layer1"
     transform="translate(0,-1039.3622)">
    <g
       id="g5038"
       transform="matrix(0.62393002,0,0,0.62393002,-286.59042,1146.0008)">
      <path
         style="opacity:1;fill:#ffffff;fill-opacity:1;fill-rule:evenodd;stroke:none;stroke-width:0.88626277;stroke-opacity:0.94117647"
         d="m 469.91838,-153.8439 -7.87394,-8.5326 3.36227,-1.8591 3.71584,4.3095 7.67158,-9.8404 3.30903,3.2512 z"
         id="path5032"
         inkscape:connector-curvature="0"
         sodipodi:nodetypes="ccccccc" />
      <path
         style="opacity:1;fill:#ffffff;fill-opacity:1;stroke:none;stroke-width:1;stroke-miterlimit:4;stroke-dasharray:none;stroke-opacity:0.94117647"
         d="m 469.74887,-170.9153 a 10.418388,10.418388 0 0 0 -10.41783,10.4198 10.418388,10.418388 0 0 0 10.41783,10.4179 10.418388,10.418388 0 0 0 10.41784,-10.4179 10.418388,10.418388 0 0 0 -0.0709,-1.1492 l -0.78641,0.9547 a 9.5644214,9.5644214 0 0 1 0.006,0.1945 9.5644214,9.5644214 0 0 1 -9.56657,9.5625 9.5644214,9.5644214 0 0 1 -9.56454,-9.5625 9.5644214,9.5644214 0 0 1 9.56454,-9.5645 9.5644214,9.5644214 0 0 1 3.66448,0.7337 l 0.52495,-0.6952 a 10.418388,10.418388 0 0 0 -4.18943,-0.8938 z"
         id="path5034"
         inkscape:connector-curvature="0" />
    </g>
  </g>
</svg>
