<?xml version="1.0" encoding="UTF-8" standalone="no"?>
<!-- Created with Inkscape (http://www.inkscape.org/) -->

<svg
   xmlns:dc="http://purl.org/dc/elements/1.1/"
   xmlns:cc="http://creativecommons.org/ns#"
   xmlns:rdf="http://www.w3.org/1999/02/22-rdf-syntax-ns#"
   xmlns:svg="http://www.w3.org/2000/svg"
   xmlns="http://www.w3.org/2000/svg"
   xmlns:sodipodi="http://sodipodi.sourceforge.net/DTD/sodipodi-0.dtd"
   xmlns:inkscape="http://www.inkscape.org/namespaces/inkscape"
   width="20"
   height="20"
   viewBox="0 0 20 20"
   id="svg4724"
   version="1.1"
   inkscape:version="0.91 r13725"
   sodipodi:docname="mark.svg">
  <defs
     id="defs4726" />
  <sodipodi:namedview
     id="base"
     pagecolor="#ffffff"
     bordercolor="#666666"
     borderopacity="1.0"
     inkscape:pageopacity="0.0"
     inkscape:pageshadow="2"
     inkscape:zoom="11.2"
     inkscape:cx="7.7524608"
     inkscape:cy="6.5964428"
     inkscape:document-units="px"
     inkscape:current-layer="layer1"
     showgrid="false"
     units="px"
     inkscape:window-width="1280"
     inkscape:window-height="971"
     inkscape:window-x="-8"
     inkscape:window-y="-8"
     inkscape:window-maximized="1" />
  <metadata
     id="metadata4729">
    <rdf:RDF>
      <cc:Work
         rdf:about="">
        <dc:format>image/svg+xml</dc:format>
        <dc:type
           rdf:resource="http://purl.org/dc/dcmitype/StillImage" />
        <dc:title></dc:title>
      </cc:Work>
    </rdf:RDF>
  </metadata>
  <g
     inkscape:label="Layer 1"
     inkscape:groupmode="layer"
     id="layer1"
     transform="translate(0,-1032.3622)">
    <g
       transform="matrix(0.95989233,0,0,0.95989233,-487.61732,2098.361)"
       id="g5056"
       style="fill:#5e8600;fill-opacity:1">
      <path
         sodipodi:nodetypes="ccccccc"
         inkscape:connector-curvature="0"
         id="rect4993"
         d="m 518.57902,-1093.4696 -7.87394,-8.5326 3.36227,-1.8591 3.71584,4.3095 7.67158,-9.8404 3.30903,3.2512 z"
         style="opacity:1;fill:#5e8600;fill-opacity:1;fill-rule:evenodd;stroke:none;stroke-width:0.88626277;stroke-opacity:0.94117647" />
      <path
         inkscape:connector-curvature="0"
         id="path4916"
         d="m 518.40951,-1110.541 a 10.418388,10.418388 0 0 0 -10.41783,10.4198 10.418388,10.418388 0 0 0 10.41783,10.4179 10.418388,10.418388 0 0 0 10.41784,-10.4179 10.418388,10.418388 0 0 0 -0.0709,-1.1492 l -0.78641,0.9547 a 9.5644214,9.5644214 0 0 1 0.006,0.1945 9.5644214,9.5644214 0 0 1 -9.56657,9.5625 9.5644214,9.5644214 0 0 1 -9.56454,-9.5625 9.5644214,9.5644214 0 0 1 9.56454,-9.5645 9.5644214,9.5644214 0 0 1 3.66448,0.7337 l 0.52495,-0.6952 a 10.418388,10.418388 0 0 0 -4.18943,-0.8938 z"
         style="opacity:1;fill:#5e8600;fill-opacity:1;stroke:none;stroke-width:1;stroke-miterlimit:4;stroke-dasharray:none;stroke-opacity:0.94117647" />
    </g>
  </g>
</svg>
